<svg width="1230" height="200" xmlns="http://www.w3.org/2000/svg">
 <!-- Created with Method Draw - http://github.com/duopixel/Method-Draw/ -->

 <g>
  <title>background</title>
  <rect fill="none" id="canvas_background" height="202" width="1232" y="-1" x="-1"/>
  <g display="none" overflow="visible" y="0" x="0" height="100%" width="100%" id="canvasGrid">
   <rect fill="url(#gridpattern)" stroke-width="0" y="0" x="0" height="100%" width="100%"/>
  </g>
 </g>
 <g>
  <title>Layer 1</title>
  <defs>
   <style>.cls-1{fill:#00a43a;fill-rule:evenodd;}</style>
  </defs>
  <g stroke="null" id="svg_45">
   <g stroke="null" transform="matrix(0.8364157882835286,0,0,0.8364157882835286,-77299.47189552916,-16222.907567992845) " id="svg_35">
    <g stroke="null" id="svg_36">
     <polygon stroke="null" id="svg_37" fill="#EF3B2D" points="93444.27370262146,19464.177734375 93427.80495262146,19464.177734375 93427.80495262146,19564.40625 93475.20339012146,19564.40625 93475.20339012146,19549.658203125 93444.27370262146,19549.658203125 "/>
     <path stroke="null" id="svg_38" fill="#EF3B2D" d="m93533.33251,19506.70332c-2.101,-3.341 -5.083,-5.965 -8.949,-7.875c-3.865,-1.909 -7.756,-2.864 -11.669,-2.864c-5.062,0 -9.69,0.931 -13.89,2.792c-4.201,1.861 -7.804,4.417 -10.811,7.661c-3.007,3.246 -5.347,6.993 -7.016,11.239c-1.672,4.249 -2.506,8.713 -2.506,13.389c0,4.774 0.834,9.26 2.506,13.459c1.669,4.202 4.009,7.925 7.016,11.169c3.007,3.246 6.609,5.799 10.811,7.66c4.199,1.861 8.828,2.792 13.89,2.792c3.913,0 7.804,-0.955 11.669,-2.863c3.866,-1.908 6.849,-4.533 8.949,-7.875l0,9.021l15.607,0l0,-66.725l-15.607,0l0,9.02zm-1.431,32.503c-0.955,2.578 -2.291,4.821 -4.009,6.73c-1.719,1.91 -3.795,3.437 -6.229,4.582c-2.435,1.146 -5.133,1.718 -8.091,1.718c-2.96,0 -5.633,-0.572 -8.019,-1.718c-2.387,-1.146 -4.438,-2.672 -6.156,-4.582c-1.719,-1.909 -3.032,-4.152 -3.938,-6.73c-0.909,-2.577 -1.36,-5.298 -1.36,-8.161c0,-2.864 0.451,-5.585 1.36,-8.162c0.905,-2.577 2.219,-4.819 3.938,-6.729c1.718,-1.908 3.77,-3.437 6.156,-4.582c2.386,-1.146 5.059,-1.718 8.019,-1.718c2.958,0 5.656,0.572 8.091,1.718c2.434,1.146 4.51,2.674 6.229,4.582c1.718,1.91 3.054,4.152 4.009,6.729c0.953,2.577 1.432,5.298 1.432,8.162c-0.001,2.863 -0.479,5.584 -1.432,8.161z"/>
     <path stroke="null" id="svg_39" fill="#EF3B2D" d="m93660.19551,19506.70332c-2.101,-3.341 -5.083,-5.965 -8.949,-7.875c-3.865,-1.909 -7.756,-2.864 -11.669,-2.864c-5.062,0 -9.69,0.931 -13.89,2.792c-4.201,1.861 -7.804,4.417 -10.811,7.661c-3.007,3.246 -5.347,6.993 -7.016,11.239c-1.672,4.249 -2.506,8.713 -2.506,13.389c0,4.774 0.834,9.26 2.506,13.459c1.669,4.202 4.009,7.925 7.016,11.169c3.007,3.246 6.609,5.799 10.811,7.66c4.199,1.861 8.828,2.792 13.89,2.792c3.913,0 7.804,-0.955 11.669,-2.863c3.866,-1.908 6.849,-4.533 8.949,-7.875l0,9.021l15.607,0l0,-66.725l-15.607,0l0,9.02zm-1.432,32.503c-0.955,2.578 -2.291,4.821 -4.009,6.73c-1.719,1.91 -3.795,3.437 -6.229,4.582c-2.435,1.146 -5.133,1.718 -8.091,1.718c-2.96,0 -5.633,-0.572 -8.019,-1.718c-2.387,-1.146 -4.438,-2.672 -6.156,-4.582c-1.719,-1.909 -3.032,-4.152 -3.938,-6.73c-0.909,-2.577 -1.36,-5.298 -1.36,-8.161c0,-2.864 0.451,-5.585 1.36,-8.162c0.905,-2.577 2.219,-4.819 3.938,-6.729c1.718,-1.908 3.77,-3.437 6.156,-4.582c2.386,-1.146 5.059,-1.718 8.019,-1.718c2.958,0 5.656,0.572 8.091,1.718c2.434,1.146 4.51,2.674 6.229,4.582c1.718,1.91 3.054,4.152 4.009,6.729c0.953,2.577 1.432,5.298 1.432,8.162c0,2.863 -0.479,5.584 -1.432,8.161z"/>
     <rect stroke="null" id="svg_40" fill="#EF3B2D" height="100.23" width="15.606" y="19464.17732" x="93831.40751"/>
     <polygon stroke="null" id="svg_41" fill="#EF3B2D" points="93561.25026512146,19564.40625 93576.85964012146,19564.40625 93576.85964012146,19513.0390625 93603.63307762146,19513.0390625 93603.63307762146,19497.68359375 93561.25026512146,19497.68359375 "/>
     <polygon stroke="null" id="svg_42" fill="#EF3B2D" points="93738.37526512146,19497.68359375 93718.75807762146,19548.779296875 93699.14089012146,19497.68359375 93683.33620262146,19497.68359375 93708.95339012146,19564.40625 93728.56276512146,19564.40625 93754.17995262146,19497.68359375 "/>
     <path stroke="null" id="svg_43" fill="#EF3B2D" d="m93788.22151,19495.96732c-19.112,0 -34.239,15.706 -34.239,35.079c0,21.416 14.641,35.079 36.239,35.079c12.088,0 19.806,-4.622 29.234,-14.688l-10.544,-8.158c-0.006,0.008 -7.958,10.449 -19.832,10.449c-13.802,0 -19.612,-11.127 -19.612,-16.884l51.777,0c2.72,-22.043 -11.772,-40.877 -33.023,-40.877zm-18.713,29.28c0.12,-1.284 1.917,-16.884 18.589,-16.884c16.671,0 18.697,15.598 18.813,16.884l-37.402,0z"/>
    </g>
    <path stroke="null" id="svg_44" fill="#EF3B2D" d="m93380.30951,19463.39332c-0.024,-0.088 -0.073,-0.165 -0.104,-0.25c-0.058,-0.157 -0.108,-0.316 -0.191,-0.46c-0.056,-0.097 -0.137,-0.176 -0.203,-0.265c-0.087,-0.117 -0.161,-0.242 -0.265,-0.345c-0.085,-0.086 -0.194,-0.148 -0.29,-0.223c-0.109,-0.085 -0.206,-0.182 -0.327,-0.252c0,0 -0.001,0 -0.002,-0.001c-0.001,0 -0.001,-0.001 -0.002,-0.002l-35.648,-20.524c-0.917,-0.528 -2.047,-0.528 -2.964,0l-35.647,20.522c-0.001,0 -0.001,0.001 -0.002,0.002c-0.001,0 -0.002,0 -0.002,0.001c-0.121,0.07 -0.219,0.167 -0.327,0.252c-0.096,0.075 -0.205,0.138 -0.29,0.223c-0.103,0.103 -0.178,0.228 -0.265,0.345c-0.066,0.089 -0.147,0.169 -0.203,0.265c-0.083,0.144 -0.133,0.304 -0.191,0.46c-0.031,0.085 -0.08,0.162 -0.104,0.25c-0.067,0.249 -0.103,0.51 -0.103,0.776l0,38.979l-29.706,17.103l0,-76.255c0,-0.265 -0.036,-0.526 -0.103,-0.776c-0.024,-0.088 -0.073,-0.165 -0.104,-0.25c-0.058,-0.157 -0.108,-0.316 -0.191,-0.46c-0.056,-0.097 -0.137,-0.176 -0.203,-0.265c-0.087,-0.117 -0.161,-0.242 -0.265,-0.345c-0.085,-0.086 -0.194,-0.148 -0.29,-0.223c-0.109,-0.085 -0.206,-0.182 -0.327,-0.252c0,0 -0.001,0 -0.002,-0.001c-0.001,0 -0.001,-0.001 -0.002,-0.002l-35.647,-20.523c-0.917,-0.528 -2.047,-0.528 -2.964,0l-35.647,20.523c-0.001,0 -0.001,0.001 -0.002,0.002c-0.001,0 -0.002,0 -0.002,0.001c-0.121,0.07 -0.219,0.167 -0.327,0.252c-0.096,0.075 -0.205,0.138 -0.29,0.223c-0.103,0.103 -0.178,0.228 -0.265,0.345c-0.066,0.089 -0.147,0.169 -0.203,0.265c-0.083,0.144 -0.133,0.304 -0.191,0.46c-0.031,0.085 -0.08,0.162 -0.104,0.25c-0.067,0.249 -0.103,0.51 -0.103,0.776l0,122.09c0,1.063 0.568,2.044 1.489,2.575l71.293,41.045c0.156,0.089 0.324,0.143 0.49,0.202c0.078,0.028 0.15,0.074 0.23,0.095c0.249,0.066 0.506,0.1 0.762,0.1c0.256,0 0.512,-0.033 0.762,-0.1c0.069,-0.018 0.132,-0.059 0.2,-0.083c0.176,-0.061 0.354,-0.119 0.519,-0.214l71.293,-41.045c0.921,-0.53 1.489,-1.512 1.489,-2.575l0,-38.979l34.158,-19.666c0.921,-0.53 1.489,-1.512 1.489,-2.575l0,-40.697c-0.003,-0.264 -0.038,-0.525 -0.106,-0.774zm-109.813,99.275l-29.648,-16.779l31.136,-17.926c0,0 0,0 0.001,-0.001l34.164,-19.669l29.674,17.084l-21.772,12.428l-43.555,24.863zm68.329,-76.259l0,33.841l-12.475,-7.182l-17.231,-9.92l0,-33.841l12.475,7.182l17.231,9.92zm2.97,-39.335l29.693,17.095l-29.693,17.095l-29.693,-17.095l29.693,-17.095zm-91.494,86.516l-12.475,7.182l0,-74.538l17.231,-9.92l12.475,-7.182l0,74.537l-17.231,9.921zm-15.446,-106.691l29.693,17.095l-29.693,17.095l-29.693,-17.095l29.693,-17.095zm-32.676,22.234l12.475,7.182l17.231,9.92l0,79.676c0,0.002 0.001,0.003 0.001,0.005s-0.001,0.004 -0.001,0.006c0,0.114 0.032,0.221 0.045,0.333c0.017,0.146 0.021,0.294 0.059,0.434c0.001,0.002 0.001,0.005 0.002,0.007c0.032,0.117 0.094,0.222 0.14,0.334c0.051,0.124 0.088,0.255 0.156,0.371c0.001,0.003 0.002,0.006 0.004,0.009c0.061,0.105 0.149,0.191 0.222,0.288c0.081,0.105 0.149,0.22 0.244,0.314c0.003,0.003 0.005,0.007 0.008,0.01c0.084,0.083 0.19,0.142 0.284,0.215c0.106,0.083 0.202,0.178 0.32,0.247c0.004,0.002 0.009,0.003 0.013,0.005c0.004,0.002 0.007,0.006 0.011,0.008l34.139,19.321l0,34.175l-65.352,-37.625l0,-115.235l-0.001,0zm136.646,115.235l-65.352,37.625l0,-34.182l48.399,-27.628l16.953,-9.677l0,33.862zm35.646,-61.22l-29.706,17.102l0,-33.841l17.231,-9.92l12.475,-7.182l0,33.841z"/>
   </g>
  </g>
  <defs>
   <style>.cls-1{fill:#00a43a;fill-rule:evenodd;}</style>
  </defs>
  <g stroke="null" id="svg_75">
   <g stroke="null" transform="matrix(0.863142196159978,0,0,0.863142196159978,-61456.36973474693,-10040.272110966054) " id="svg_73">
    <title stroke="null" transform="translate(0,1.514511227607727) translate(0,-0.5930976271629333) translate(0,0.5924777388572693) translate(0,-0.00032417362672276795) translate(0,-1.8873727321624756) translate(0,1.8882865905761719) translate(0,-2.1149117946624756) translate(-25.570331573486328,-1.1622878313064575) translate(-149.8744354248047,85.85041046142578) translate(71373.6015625,0) translate(0,11564.0009765625) ">background</title>
    <rect stroke="null" fill="none" id="svg_71" height="202" width="722" y="11647.08867" x="71197.1568"/>
   </g>
   <g stroke="null" transform="matrix(0.863142196159978,0,0,0.863142196159978,-61456.36973474693,-10040.272110966054) " id="svg_74">
    <title stroke="null" transform="translate(0,1.514511227607727) translate(0,-0.5930976271629333) translate(0,0.5924777388572693) translate(0,-0.00032417362672276795) translate(0,-1.8873727321624756) translate(0,1.8882865905761719) translate(0,-2.1149117946624756) translate(-25.570331573486328,-1.1622878313064575) translate(-149.8744354248047,85.85041046142578) translate(71373.6015625,0) translate(0,11564.0009765625) ">Layer 1</title>
    <path stroke="null" id="svg_70" d="m71573.9868,11736.29867c0.82,7.46 8.28,17.61 11.49,20.34c-5.21,1.36 -10.06,-1.35 -11.49,-4.37l0,36.41c-0.11,10.41 -8.15,13.38 -12,13.48l0,-40.19c-0.92,6.1 -6.47,9.8 -14,7.89c5.54,-6.67 13.87,-32.52 13.68,-39.54l-11.13,0l0,-12.53l11.49,0l0,-24l14.83,0.8c-0.12,1 -0.92,1.84 -2.87,2.07l0,21.13l9,0c0.09,10.92 -7.05,12.35 -9,12.53l0,6l0,-0.02zm48.73,33.9l-13.45,-4.59a152,152 0 0 1 -4.48,18.27c-9.31,1.38 -17.82,2.65 -24.14,3.45l4.37,13.56a2.48,2.48 0 0 0 1.84,-2c6.17,-1.21 14.57,-2.86 23.56,-4.69c1.76,-0.35 3.53,-0.73 5.32,-1.09c8.19,-1.65 8.52,-9.21 8.36,-12.27l-8.28,1.31c1.5,-3.68 3,-7.59 4,-10.69c1.49,0 2.53,-0.46 2.87,-1.27l0.03,0.01zm-25.29,-48.27l-11.2,0a11.77,11.77 0 0 1 -6.34,10.8l29.2,0c3.28,-0.07 11,-0.54 11,-10.8l-10.82,0l0,-7l4.19,0c4.19,0 10.52,-2.7 10.52,-10.92l-14.71,0l0,-7.25c2,-0.35 2.88,-1 3,-2.07l-14.83,-0.81l0,10.12l-14.14,0l0,10.92l14.13,0l0,7l0,0.01zm23.22,14.94l0,0l0,27.7l-34.49,0l0,-27.7l34.49,0zm-24.13,29.43l0,0a72.22,72.22 0 0 1 4.25,15.28l-11,3.68a79.64,79.64 0 0 0 -3.56,-16l10.35,-3l-0.04,0.04zm12.52,-11.15l0,0l0,-8.85l-11.88,0l0,8.85l11.88,0zm48.39,-35.4l0,0c0.09,8.28 -4.64,12.15 -6.78,12.41l0,55.63c0,10.92 -3.56,14.6 -20.57,14.6a46.67,46.67 0 0 0 -3.92,-12.76c4.25,0.23 8.5,0.23 9.88,0.23s2,-0.58 2,-2.07l0,-17.93l-9.66,3.45c-0.57,-7.59 -3.1,-20.12 -5.86,-29.66l10,-3a185.55,185.55 0 0 1 5.52,21.83l0,-30.33l-18.42,0c4.26,-1.53 5.19,-6.73 5.14,-12.41l13.25,0l0,-25.51l15.52,0.69c-0.12,1.15 -0.81,1.84 -2.88,2.18l0,22.65l6.78,0z" class="cls-1"/>
    <path stroke="null" id="svg_69" d="m71898.1568,11736.85867c-0.93,8.19 -0.62,50.76 -6.23,57.89c-2.92,4 -6.32,5.73 -18.36,5.73c-1.76,0 -3.51,0 -5.38,-0.11a35,35 0 0 0 -2.93,-11.46l-27.88,0c-0.49,2.06 -1.45,7.13 -13,7.13l0,-39.88l46.55,0l0,31.46c1.87,0.12 3.51,0.12 4.56,0.12a4.44,4.44 0 0 0 4,-1.76c2,-2.45 3.16,-12 4.1,-36.72l-65.5,0c-1.22,11 -2.44,22.39 -6,32.94c-1.71,5.08 -8.7,16.28 -22.09,14.63c13,-18.48 15.44,-53.53 15.44,-72.36l0,-28.77l89.72,0l0,33.8l-75.79,0c-0.12,2.34 -0.12,4.91 -0.35,7.48l79.14,-0.12zm-17.1,-29.35l-61.69,0l0,10.18l61.64,0l0,-10.18l0.05,0zm-23.16,70.29l0,0l0,-10.53l-20.52,0l0,10.53l20.52,0z" class="cls-1"/>
    <path stroke="null" id="svg_68" d="m71762.1568,11777.51367l-18,0c8.86,6.34 18.66,12.27 36.16,15.5c-5.16,7.5 -16.64,7.71 -25,4.61c-9.06,-3.37 -16.06,-9.61 -22.7,-15.44l0,20.21l-13.69,0l0,-20.55c-7.43,6.45 -14.33,13.51 -24.65,16.4c-8.34,2.34 -18.16,0.68 -22.8,-4.66a65,65 0 0 0 34.21,-16.07l-31.33,0l0,-11.51l44.57,0l0,-6l-10.59,0l0.23,1.26l-8.53,2.65a25.46,25.46 0 0 0 -0.69,-3.8c-7.95,0.81 -15.43,1.61 -20.73,2.07a2,2 0 0 1 -1.73,1.73l-3.46,-11.17l6,-0.23a78.69,78.69 0 0 0 5.29,-7.26a94.35,94.35 0 0 0 -11.29,-12.44l5.19,-7.37c0.81,0.69 1.61,1.39 2.42,2.19a107.24,107.24 0 0 0 6.1,-13l11.17,4.73a2.91,2.91 0 0 1 -2.76,1a123,123 0 0 1 -8.39,13.27a25.81,25.81 0 0 1 3,3.46c2.07,-3.46 3.91,-6.68 5.41,-9.56l10.92,4.63a3.35,3.35 0 0 1 -2.88,1a225.46,225.46 0 0 1 -13.45,18.9l7.14,-0.35c-0.58,-1.84 -1.27,-3.68 -2,-5.3l8.06,-2.41a59.23,59.23 0 0 1 3.92,11.06l0,-32.9l10,0c1,-2.88 2.07,-6.1 2.76,-8.75l-7.6,0c-0.33,2.1 -4.16,5.41 -13.71,5.41l0,-5.46l-24.57,0l0,-11.63l24.64,0l0,-7.95l16.71,0.81c-0.12,1.15 -1,1.84 -3,2.3l0,4.84l26.49,0l0,-7.95l16.82,0.81c-0.12,1.26 -0.92,1.84 -3.11,2.3l0,4.84l25.22,0c0.26,11.15 -6.41,11.57 -12.07,11.63l-13.18,0c-0.58,2.27 -4.17,5.41 -13.71,5.41l0,-5.41l-16,0l11.75,3c-0.34,0.81 -1.27,1.27 -2.76,1.27c-0.58,1.38 -1.38,2.88 -2.19,4.49l14.51,0l0,9.33l3.8,-5.18l2.53,2.07a95.7,95.7 0 0 0 6.34,-13l11.4,5c-0.34,0.69 -1.26,1 -2.76,1a138.3,138.3 0 0 1 -8.43,12.87a38.76,38.76 0 0 1 3.11,3.22c2.42,-3.57 4.49,-7 6.22,-10l11.3,4.73c-0.46,0.92 -1.5,1.27 -2.88,1.27a229.92,229.92 0 0 1 -14.75,18.51l7.84,-0.46c-0.81,-1.95 -1.62,-3.8 -2.42,-5.53l8,-3.57a77.44,77.44 0 0 1 6.68,18l-8.58,3.78a34.28,34.28 0 0 0 -0.92,-4.14c-8.06,0.92 -15.55,1.72 -21,2.18a2,2 0 0 1 -1.6,1.72l-3.89,-10.36l0,6.45l-8.64,0c-0.11,1 -0.92,1.84 -3,2.18l0,3.81l44.93,0c0,9.28 -6.95,11.76 -15.37,11.51l-0.03,0zm-29.9,-40.77l0,0l0,-5.41l-13.44,0l0,5.41l13.44,0zm-13.44,8.52l0,0l0,5.53l13.47,0l0,-5.53l-13.47,0zm25.45,7.38l0,0l4.38,-0.12c1.84,-2.07 3.8,-4.49 5.76,-6.91a122.3,122.3 0 0 0 -10.14,-10.25l0,17.28z" class="cls-1"/>
    <path stroke="null" id="svg_67" d="m71518.6668,11741.26429l-24.89,0c6.79,23.81 23.48,46.49 47.18,54.43c-13,8.34 -24.6,3.81 -31.76,-1.88c-14,-11.12 -19.49,-22 -25.19,-36.22c-6.13,18.29 -12.67,27 -27.5,37.12c-12.32,8.37 -25.18,6.42 -30.54,1.53c28.06,-11.38 43,-33.93 47,-55l-40.71,0l0,-15.16l41.69,0l-0.05,-30.36l21,1.34c-0.23,1.26 -1.07,2.07 -3,2.41l0,26.61l43.2,0c-0.03,7.59 -3.3,15.45 -16.43,15.18z" class="cls-1"/>
    <g stroke="null" id="svg_60">
     <g stroke="null" transform="matrix(1.4444443523810042,0,0,1.4116160678354013,-4799.601723463098,-1018.6714747331246) " id="svg_65">
      <title stroke="null" transform="translate(0,1.0728917121887207) translate(0,-0.42015504837036133) translate(0,0.41971591114997864) translate(0,-0.0002296471648151055) translate(0,-1.3370298147201538) translate(0,1.3376771211624146) translate(0,-1.4982202053070068) translate(-17.702537536621094,-0.8233739137649536) translate(-103.75923156738281,60.81711196899414) translate(49412.49609375,0) translate(0,8192.0302734375) ">background</title>
      <rect stroke="null" x="52619.71791" y="8963.07434" width="162" height="162" id="svg_66" fill="none"/>
     </g>
     <g stroke="null" transform="matrix(1.4444443523810042,0,0,1.4116160678354013,-4799.601723463098,-1018.6714747331246) " id="svg_61">
      <title stroke="null" transform="translate(0,1.0728917121887207) translate(0,-0.42015504837036133) translate(0,0.41971591114997864) translate(0,-0.0002296471648151055) translate(0,-1.3370298147201538) translate(0,1.3376771211624146) translate(0,-1.4982202053070068) translate(-17.702537536621094,-0.8233739137649536) translate(-103.75923156738281,60.81711196899414) translate(49412.49609375,0) translate(0,8192.0302734375) ">Layer 1</title>
      <polygon stroke="null" class="cls-1" points="52679.9140625,9038.295547962189 52695.46484375,9038.245743274689 52695.421875,9024.566055774689 52705.8828125,9024.545547962189 52705.921875,9038.215469837189 52721.68359375,9038.165665149689 52721.71484375,9048.625626087189 52705.953125,9048.675430774689 52705.9921875,9063.005508899689 52721.90234375,9080.465469837189 52707.08203125,9080.465469837189 52700.71484375,9073.485977649689 52694.3515625,9080.465469837189 52679.53125,9080.465469837189 52695.54296875,9062.896133899689 52695.4921875,9048.705704212189 52679.93359375,9048.755508899689 52679.9140625,9038.295547962189 " id="svg_64" fill="#00a43a" fill-rule="evenodd"/>
      <path stroke="null" class="cls-1" d="m52728.65256,9058.69434a18.29,18.29 0 0 1 -18.69,3.68l0,-9.7l15.73,0l0,-18.22l-15.73,0l0,-13.77l-18.23,0l0,13.77l-15.53,0l0,18.22l15.53,0l0,10a18.08,18.08 0 0 1 -6,1a18.29,18.29 0 0 1 -12.7,-5.12a18.17,18.17 0 0 1 -9.08,2.42a18.36,18.36 0 0 1 -5.7,-35.9a18.66,18.66 0 0 1 -0.39,-3.76a18.4,18.4 0 0 1 18.36,-18.36a18.18,18.18 0 0 1 6.45,1.17a18.36,18.36 0 0 1 36.66,-0.34a18.13,18.13 0 0 1 5.39,-0.81a18.4,18.4 0 0 1 18.36,18.4a18.72,18.72 0 0 1 -0.37,3.7a18.36,18.36 0 1 1 -14.06,33.62z" id="svg_63" fill="#00a43a" fill-rule="evenodd"/>
      <path stroke="null" class="cls-1" d="m52700.54291,9084.54434c28.46,0 51.05,11.23 58.62,17.76c-26.79,-13.89 -88,-14.25 -116.89,0c10.41,-6.72 29.8,-17.76 58.27,-17.76z" id="svg_62" fill="#00a43a" fill-rule="evenodd"/>
     </g>
    </g>
   </g>
  </g>
 </g>
</svg>